<mxfile host="app.diagrams.net" modified="2021-09-13T11:29:23.721Z" agent="5.0 (Windows NT 10.0; Win64; x64) AppleWebKit/537.36 (KHTML, like Gecko) Chrome/93.0.4577.63 Safari/537.36 Edg/93.0.961.44" etag="QivHRaTcBP5LG4zh7ebi" version="14.9.6" type="github">
  <diagram id="C5RBs43oDa-KdzZeNtuy" name="Page-1">
    <mxGraphModel dx="1678" dy="962" grid="0" gridSize="10" guides="1" tooltips="1" connect="1" arrows="1" fold="1" page="0" pageScale="1" pageWidth="827" pageHeight="1169" math="0" shadow="0">
      <root>
        <mxCell id="WIyWlLk6GJQsqaUBKTNV-0" />
        <mxCell id="WIyWlLk6GJQsqaUBKTNV-1" parent="WIyWlLk6GJQsqaUBKTNV-0" />
        <mxCell id="-CNL-VoJMd0v483ogC2z-0" value="themes&#xa;" style="swimlane;fontStyle=0;childLayout=stackLayout;horizontal=1;startSize=45;fillColor=none;horizontalStack=0;resizeParent=1;resizeParentMax=0;resizeLast=0;collapsible=1;marginBottom=0;verticalAlign=top;sketch=1;rounded=1;fontSize=18;" vertex="1" parent="WIyWlLk6GJQsqaUBKTNV-1">
          <mxGeometry x="22" y="151" width="311" height="201" as="geometry" />
        </mxCell>
        <mxCell id="-CNL-VoJMd0v483ogC2z-1" value="- id: int" style="text;strokeColor=none;fillColor=none;align=left;verticalAlign=middle;spacingLeft=4;spacingRight=4;overflow=hidden;rotatable=0;points=[[0,0.5],[1,0.5]];portConstraint=eastwest;sketch=1;rounded=1;fontSize=18;" vertex="1" parent="-CNL-VoJMd0v483ogC2z-0">
          <mxGeometry y="45" width="311" height="26" as="geometry" />
        </mxCell>
        <mxCell id="-CNL-VoJMd0v483ogC2z-2" value="- url_image: String" style="text;strokeColor=none;fillColor=none;align=left;verticalAlign=middle;spacingLeft=4;spacingRight=4;overflow=hidden;rotatable=0;points=[[0,0.5],[1,0.5]];portConstraint=eastwest;sketch=1;rounded=1;fontSize=18;" vertex="1" parent="-CNL-VoJMd0v483ogC2z-0">
          <mxGeometry y="71" width="311" height="26" as="geometry" />
        </mxCell>
        <mxCell id="-CNL-VoJMd0v483ogC2z-3" value="- name: String" style="text;strokeColor=none;fillColor=none;align=left;verticalAlign=middle;spacingLeft=4;spacingRight=4;overflow=hidden;rotatable=0;points=[[0,0.5],[1,0.5]];portConstraint=eastwest;sketch=1;rounded=1;fontSize=18;" vertex="1" parent="-CNL-VoJMd0v483ogC2z-0">
          <mxGeometry y="97" width="311" height="26" as="geometry" />
        </mxCell>
        <mxCell id="-CNL-VoJMd0v483ogC2z-8" value="- type: TypeTheme&#xa;" style="text;strokeColor=none;fillColor=none;align=left;verticalAlign=middle;spacingLeft=4;spacingRight=4;overflow=hidden;rotatable=0;points=[[0,0.5],[1,0.5]];portConstraint=eastwest;sketch=1;rounded=1;fontSize=18;" vertex="1" parent="-CNL-VoJMd0v483ogC2z-0">
          <mxGeometry y="123" width="311" height="26" as="geometry" />
        </mxCell>
        <mxCell id="-CNL-VoJMd0v483ogC2z-9" value="- position: int" style="text;strokeColor=none;fillColor=none;align=left;verticalAlign=middle;spacingLeft=4;spacingRight=4;overflow=hidden;rotatable=0;points=[[0,0.5],[1,0.5]];portConstraint=eastwest;sketch=1;rounded=1;fontSize=18;" vertex="1" parent="-CNL-VoJMd0v483ogC2z-0">
          <mxGeometry y="149" width="311" height="26" as="geometry" />
        </mxCell>
        <mxCell id="-CNL-VoJMd0v483ogC2z-10" value="- status: StatusUtil&#xa;" style="text;strokeColor=none;fillColor=none;align=left;verticalAlign=middle;spacingLeft=4;spacingRight=4;overflow=hidden;rotatable=0;points=[[0,0.5],[1,0.5]];portConstraint=eastwest;sketch=1;rounded=1;fontSize=18;" vertex="1" parent="-CNL-VoJMd0v483ogC2z-0">
          <mxGeometry y="175" width="311" height="26" as="geometry" />
        </mxCell>
        <mxCell id="-CNL-VoJMd0v483ogC2z-12" value="keywords" style="swimlane;fontStyle=0;childLayout=stackLayout;horizontal=1;startSize=45;fillColor=none;horizontalStack=0;resizeParent=1;resizeParentMax=0;resizeLast=0;collapsible=1;marginBottom=0;verticalAlign=top;sketch=1;rounded=1;fontSize=18;" vertex="1" parent="WIyWlLk6GJQsqaUBKTNV-1">
          <mxGeometry x="876" y="147" width="311" height="202" as="geometry" />
        </mxCell>
        <mxCell id="-CNL-VoJMd0v483ogC2z-13" value="- id: int" style="text;strokeColor=none;fillColor=none;align=left;verticalAlign=middle;spacingLeft=4;spacingRight=4;overflow=hidden;rotatable=0;points=[[0,0.5],[1,0.5]];portConstraint=eastwest;sketch=1;rounded=1;fontSize=18;" vertex="1" parent="-CNL-VoJMd0v483ogC2z-12">
          <mxGeometry y="45" width="311" height="26" as="geometry" />
        </mxCell>
        <mxCell id="-CNL-VoJMd0v483ogC2z-15" value="- name: Map&lt;String, String&gt;" style="text;strokeColor=none;fillColor=none;align=left;verticalAlign=middle;spacingLeft=4;spacingRight=4;overflow=hidden;rotatable=0;points=[[0,0.5],[1,0.5]];portConstraint=eastwest;sketch=1;rounded=1;fontSize=18;" vertex="1" parent="-CNL-VoJMd0v483ogC2z-12">
          <mxGeometry y="71" width="311" height="27" as="geometry" />
        </mxCell>
        <mxCell id="-CNL-VoJMd0v483ogC2z-16" value="- description: String" style="text;strokeColor=none;fillColor=none;align=left;verticalAlign=middle;spacingLeft=4;spacingRight=4;overflow=hidden;rotatable=0;points=[[0,0.5],[1,0.5]];portConstraint=eastwest;sketch=1;rounded=1;fontSize=18;" vertex="1" parent="-CNL-VoJMd0v483ogC2z-12">
          <mxGeometry y="98" width="311" height="26" as="geometry" />
        </mxCell>
        <mxCell id="-CNL-VoJMd0v483ogC2z-17" value="- field_Id: int" style="text;strokeColor=none;fillColor=none;align=left;verticalAlign=middle;spacingLeft=4;spacingRight=4;overflow=hidden;rotatable=0;points=[[0,0.5],[1,0.5]];portConstraint=eastwest;sketch=1;rounded=1;fontSize=18;" vertex="1" parent="-CNL-VoJMd0v483ogC2z-12">
          <mxGeometry y="124" width="311" height="26" as="geometry" />
        </mxCell>
        <mxCell id="-CNL-VoJMd0v483ogC2z-19" value="- subField_Id: int" style="text;strokeColor=none;fillColor=none;align=left;verticalAlign=middle;spacingLeft=4;spacingRight=4;overflow=hidden;rotatable=0;points=[[0,0.5],[1,0.5]];portConstraint=eastwest;sketch=1;rounded=1;fontSize=18;" vertex="1" parent="-CNL-VoJMd0v483ogC2z-12">
          <mxGeometry y="150" width="311" height="26" as="geometry" />
        </mxCell>
        <mxCell id="-CNL-VoJMd0v483ogC2z-18" value="- status: StatusUtil&#xa;" style="text;strokeColor=none;fillColor=none;align=left;verticalAlign=middle;spacingLeft=4;spacingRight=4;overflow=hidden;rotatable=0;points=[[0,0.5],[1,0.5]];portConstraint=eastwest;sketch=1;rounded=1;fontSize=18;" vertex="1" parent="-CNL-VoJMd0v483ogC2z-12">
          <mxGeometry y="176" width="311" height="26" as="geometry" />
        </mxCell>
        <mxCell id="-CNL-VoJMd0v483ogC2z-20" value="themes_keywords&#xa;&#xa;" style="swimlane;fontStyle=0;childLayout=stackLayout;horizontal=1;startSize=45;fillColor=none;horizontalStack=0;resizeParent=1;resizeParentMax=0;resizeLast=0;collapsible=1;marginBottom=0;verticalAlign=top;sketch=1;rounded=1;fontSize=18;" vertex="1" parent="WIyWlLk6GJQsqaUBKTNV-1">
          <mxGeometry x="429" y="182" width="311" height="123" as="geometry" />
        </mxCell>
        <mxCell id="-CNL-VoJMd0v483ogC2z-21" value="- id: int" style="text;strokeColor=none;fillColor=none;align=left;verticalAlign=middle;spacingLeft=4;spacingRight=4;overflow=hidden;rotatable=0;points=[[0,0.5],[1,0.5]];portConstraint=eastwest;sketch=1;rounded=1;fontSize=18;" vertex="1" parent="-CNL-VoJMd0v483ogC2z-20">
          <mxGeometry y="45" width="311" height="26" as="geometry" />
        </mxCell>
        <mxCell id="-CNL-VoJMd0v483ogC2z-22" value="- themeId: int" style="text;strokeColor=none;fillColor=none;align=left;verticalAlign=middle;spacingLeft=4;spacingRight=4;overflow=hidden;rotatable=0;points=[[0,0.5],[1,0.5]];portConstraint=eastwest;sketch=1;rounded=1;fontSize=18;" vertex="1" parent="-CNL-VoJMd0v483ogC2z-20">
          <mxGeometry y="71" width="311" height="26" as="geometry" />
        </mxCell>
        <mxCell id="-CNL-VoJMd0v483ogC2z-26" value="- keywordId: int" style="text;strokeColor=none;fillColor=none;align=left;verticalAlign=middle;spacingLeft=4;spacingRight=4;overflow=hidden;rotatable=0;points=[[0,0.5],[1,0.5]];portConstraint=eastwest;sketch=1;rounded=1;fontSize=18;" vertex="1" parent="-CNL-VoJMd0v483ogC2z-20">
          <mxGeometry y="97" width="311" height="26" as="geometry" />
        </mxCell>
        <mxCell id="-CNL-VoJMd0v483ogC2z-27" style="edgeStyle=orthogonalEdgeStyle;curved=1;rounded=1;sketch=1;orthogonalLoop=1;jettySize=auto;html=1;entryX=0;entryY=-0.077;entryDx=0;entryDy=0;entryPerimeter=0;fontSize=18;endArrow=ERmany;endFill=0;strokeWidth=1;" edge="1" parent="WIyWlLk6GJQsqaUBKTNV-1" source="-CNL-VoJMd0v483ogC2z-3" target="-CNL-VoJMd0v483ogC2z-22">
          <mxGeometry relative="1" as="geometry" />
        </mxCell>
        <mxCell id="-CNL-VoJMd0v483ogC2z-28" style="edgeStyle=orthogonalEdgeStyle;curved=1;rounded=1;sketch=1;orthogonalLoop=1;jettySize=auto;html=1;entryX=1;entryY=-0.077;entryDx=0;entryDy=0;entryPerimeter=0;fontSize=18;endArrow=ERone;endFill=0;" edge="1" parent="WIyWlLk6GJQsqaUBKTNV-1" source="-CNL-VoJMd0v483ogC2z-16" target="-CNL-VoJMd0v483ogC2z-22">
          <mxGeometry relative="1" as="geometry" />
        </mxCell>
        <mxCell id="-CNL-VoJMd0v483ogC2z-29" value="subfields" style="swimlane;fontStyle=0;childLayout=stackLayout;horizontal=1;startSize=45;fillColor=none;horizontalStack=0;resizeParent=1;resizeParentMax=0;resizeLast=0;collapsible=1;marginBottom=0;verticalAlign=top;sketch=1;rounded=1;fontSize=18;" vertex="1" parent="WIyWlLk6GJQsqaUBKTNV-1">
          <mxGeometry x="879" y="499" width="311" height="202" as="geometry" />
        </mxCell>
        <mxCell id="-CNL-VoJMd0v483ogC2z-30" value="- id: int" style="text;strokeColor=none;fillColor=none;align=left;verticalAlign=middle;spacingLeft=4;spacingRight=4;overflow=hidden;rotatable=0;points=[[0,0.5],[1,0.5]];portConstraint=eastwest;sketch=1;rounded=1;fontSize=18;" vertex="1" parent="-CNL-VoJMd0v483ogC2z-29">
          <mxGeometry y="45" width="311" height="26" as="geometry" />
        </mxCell>
        <mxCell id="-CNL-VoJMd0v483ogC2z-31" value="- name: Map&lt;String, String&gt;" style="text;strokeColor=none;fillColor=none;align=left;verticalAlign=middle;spacingLeft=4;spacingRight=4;overflow=hidden;rotatable=0;points=[[0,0.5],[1,0.5]];portConstraint=eastwest;sketch=1;rounded=1;fontSize=18;" vertex="1" parent="-CNL-VoJMd0v483ogC2z-29">
          <mxGeometry y="71" width="311" height="27" as="geometry" />
        </mxCell>
        <mxCell id="-CNL-VoJMd0v483ogC2z-32" value="- description: String" style="text;strokeColor=none;fillColor=none;align=left;verticalAlign=middle;spacingLeft=4;spacingRight=4;overflow=hidden;rotatable=0;points=[[0,0.5],[1,0.5]];portConstraint=eastwest;sketch=1;rounded=1;fontSize=18;" vertex="1" parent="-CNL-VoJMd0v483ogC2z-29">
          <mxGeometry y="98" width="311" height="26" as="geometry" />
        </mxCell>
        <mxCell id="-CNL-VoJMd0v483ogC2z-33" value="- field_Id: int" style="text;strokeColor=none;fillColor=none;align=left;verticalAlign=middle;spacingLeft=4;spacingRight=4;overflow=hidden;rotatable=0;points=[[0,0.5],[1,0.5]];portConstraint=eastwest;sketch=1;rounded=1;fontSize=18;" vertex="1" parent="-CNL-VoJMd0v483ogC2z-29">
          <mxGeometry y="124" width="311" height="26" as="geometry" />
        </mxCell>
        <mxCell id="-CNL-VoJMd0v483ogC2z-34" value="- subField_Id: int" style="text;strokeColor=none;fillColor=none;align=left;verticalAlign=middle;spacingLeft=4;spacingRight=4;overflow=hidden;rotatable=0;points=[[0,0.5],[1,0.5]];portConstraint=eastwest;sketch=1;rounded=1;fontSize=18;" vertex="1" parent="-CNL-VoJMd0v483ogC2z-29">
          <mxGeometry y="150" width="311" height="26" as="geometry" />
        </mxCell>
        <mxCell id="-CNL-VoJMd0v483ogC2z-35" value="- status: StatusUtil&#xa;" style="text;strokeColor=none;fillColor=none;align=left;verticalAlign=middle;spacingLeft=4;spacingRight=4;overflow=hidden;rotatable=0;points=[[0,0.5],[1,0.5]];portConstraint=eastwest;sketch=1;rounded=1;fontSize=18;" vertex="1" parent="-CNL-VoJMd0v483ogC2z-29">
          <mxGeometry y="176" width="311" height="26" as="geometry" />
        </mxCell>
      </root>
    </mxGraphModel>
  </diagram>
</mxfile>
